<svg id="Layer_1" data-name="Layer 1" xmlns="http://www.w3.org/2000/svg" viewBox="0 0 15 15"><defs><style>.cls-1{fill:#22b573;}</style></defs><path class="cls-1" d="M6.5.5A6,6,0,0,0,1.34,3.44a6,6,0,0,0-.11,5.93L.52,11.86a.62.62,0,0,0,0,.27.43.43,0,0,0,.14.23.48.48,0,0,0,.23.13.5.5,0,0,0,.27,0L3.5,11.7A5.7,5.7,0,0,0,5,12.31,5.5,5.5,0,0,1,9,4.58,5.49,5.49,0,0,1,12.31,5,6,6,0,0,0,6.5.5Zm3.5,14a4.59,4.59,0,0,0,1.72-.34,4.42,4.42,0,0,0,1.46-1,4.52,4.52,0,0,0,1-1.46,4.52,4.52,0,0,0,0-3.44,4.52,4.52,0,0,0-1-1.46,4.42,4.42,0,0,0-1.46-1A4.59,4.59,0,0,0,10,5.5a4.5,4.5,0,0,0,0,9ZM9.11,8.1l-.9.9H9.75a2.7,2.7,0,0,1,1.05.21,2.72,2.72,0,0,1,1.49,1.49,2.7,2.7,0,0,1,.21,1.05V12a.5.5,0,0,1-1,0v-.25A1.74,1.74,0,0,0,9.75,10H8.21l.9.9a.51.51,0,0,1,0,.7.51.51,0,0,1-.36.15.47.47,0,0,1-.35-.15L6.65,9.85a.42.42,0,0,1-.11-.16.43.43,0,0,1,0-.19.41.41,0,0,1,0-.19.45.45,0,0,1,.11-.17L8.4,7.39a.55.55,0,0,1,.35-.14.41.41,0,0,1,.19,0,.39.39,0,0,1,.27.27.41.41,0,0,1,0,.19.55.55,0,0,1-.14.35Z"/></svg>