<svg id="Layer_1" data-name="Layer 1" xmlns="http://www.w3.org/2000/svg" viewBox="0 0 15 15"><defs><style>.cls-1{fill:#f7931e;}</style></defs><path class="cls-1" d="M6.5.5A6,6,0,0,0,1.34,3.44a6,6,0,0,0-.11,5.93L.52,11.86a.62.62,0,0,0,0,.27.43.43,0,0,0,.14.23.48.48,0,0,0,.23.13.5.5,0,0,0,.27,0L3.5,11.7A5.7,5.7,0,0,0,5,12.31,5.5,5.5,0,0,1,9,4.58,5.49,5.49,0,0,1,12.31,5,6,6,0,0,0,6.5.5Zm6.68,12.68A4.5,4.5,0,0,0,10,5.5a4.59,4.59,0,0,0-1.72.34A4.55,4.55,0,0,0,5.84,8.28a4.52,4.52,0,0,0,0,3.44,4.55,4.55,0,0,0,2.44,2.44A4.59,4.59,0,0,0,10,14.5,4.47,4.47,0,0,0,13.18,13.18ZM10.9,8.1a.36.36,0,0,1-.11-.16.43.43,0,0,1,0-.19.41.41,0,0,1,0-.19.45.45,0,0,1,.11-.17.44.44,0,0,1,.16-.1.47.47,0,0,1,.38,0,.44.44,0,0,1,.16.1l1.75,1.75a.45.45,0,0,1,.11.17.41.41,0,0,1,0,.19.43.43,0,0,1,0,.19.54.54,0,0,1-.1.16L11.6,11.6a.5.5,0,1,1-.7-.7l.89-.9H10.25A1.74,1.74,0,0,0,8.5,11.75V12a.5.5,0,0,1-1,0v-.25a2.7,2.7,0,0,1,.21-1.05A2.81,2.81,0,0,1,9.2,9.21,2.7,2.7,0,0,1,10.25,9h1.54l-.89-.9Z"/></svg>